<svg xmlns="http://www.w3.org/2000/svg" viewBox="0 0 281.29 82.61"><defs><style>.cls-1{fill:#504f51;}.cls-2{fill:url(#linear-gradient);}.cls-3{fill:url(#linear-gradient-2);}.cls-4{fill:url(#linear-gradient-3);}</style><linearGradient id="linear-gradient" x1="52.25" y1="33.86" x2="86.66" y2="14.11" gradientUnits="userSpaceOnUse"><stop offset="0" stop-color="#ca190f"/><stop offset="1" stop-color="#821216"/></linearGradient><linearGradient id="linear-gradient-2" x1="4.17" y1="72.81" x2="25.25" y2="54.1" gradientUnits="userSpaceOnUse"><stop offset="0" stop-color="#006c33"/><stop offset="0.7" stop-color="#0c8f49"/></linearGradient><linearGradient id="linear-gradient-3" x1="8.14" y1="63.33" x2="76.62" y2="17.81" gradientUnits="userSpaceOnUse"><stop offset="0" stop-color="#037e38"/><stop offset="0.03" stop-color="#2f8935"/><stop offset="0.07" stop-color="#5a9533"/><stop offset="0.11" stop-color="#819f30"/><stop offset="0.16" stop-color="#a1a72e"/><stop offset="0.2" stop-color="#bbae2d"/><stop offset="0.25" stop-color="#d0b32c"/><stop offset="0.31" stop-color="#deb72b"/><stop offset="0.38" stop-color="#e6b92a"/><stop offset="0.5" stop-color="#e9ba2a"/><stop offset="0.57" stop-color="#e8b529"/><stop offset="0.65" stop-color="#e5a527"/><stop offset="0.74" stop-color="#e08c22"/><stop offset="0.83" stop-color="#d9681c"/><stop offset="0.93" stop-color="#d13b15"/><stop offset="1" stop-color="#ca190f"/></linearGradient></defs><title>Ativo 1</title><g id="Camada_2" data-name="Camada 2"><g id="Camada_1-2" data-name="Camada 1"><path class="cls-1" d="M217.36,36.73V31.67A7.19,7.19,0,0,1,219.24,27a23.28,23.28,0,0,1,4.55-4.12l5.34-3.7A21.61,21.61,0,0,0,233.77,15a7.74,7.74,0,0,0,1.91-4.88,6.87,6.87,0,0,0-1.93-4.8,8,8,0,0,0-10.19-.5,5.78,5.78,0,0,0-1.83,4.59,1.25,1.25,0,0,1-.52,1,2.13,2.13,0,0,1-1.38.42q-1.63,0-1.63-2.14a7.73,7.73,0,0,1,2.95-6.2,12,12,0,0,1,15,.42A9.31,9.31,0,0,1,239.27,10a10,10,0,0,1-1.37,5,14.55,14.55,0,0,1-3.38,4.07q-2,1.67-4.41,3.39l-4.42,3a14.73,14.73,0,0,0-3.38,2.95A5.14,5.14,0,0,0,221,31.68v3.24l17.37,0a1.15,1.15,0,0,1,.92.47,1.68,1.68,0,0,1,.38,1.09,1.79,1.79,0,0,1-.38,1.12,1.12,1.12,0,0,1-.92.49l-19.28,0a1.92,1.92,0,0,1-1.14-.39A1.16,1.16,0,0,1,217.36,36.73Z"/><path class="cls-1" d="M241,27.68a1.7,1.7,0,0,1,.22-.88L254.86,1.07a1.78,1.78,0,0,1,1.68-1,2,2,0,0,1,1.17.42,1.21,1.21,0,0,1,.57,1,1.67,1.67,0,0,1-.16.68L245.55,25.87h10.64V15.73q0-1.31,1.79-1.31a2.3,2.3,0,0,1,1.25.34,1.09,1.09,0,0,1,.54,1V25.88h3a1.18,1.18,0,0,1,1,.48,1.87,1.87,0,0,1,0,2.22,1.19,1.19,0,0,1-1,.48h-3v7.7a1.15,1.15,0,0,1-.54,1,2.17,2.17,0,0,1-1.25.37,2.14,2.14,0,0,1-1.28-.37,1.17,1.17,0,0,1-.51-1v-7.7H242.4Q241,29,241,27.68Z"/><polygon class="cls-1" points="98.69 81.27 97.92 81.27 97.92 0.53 98.69 0.56 98.69 81.27"/><path class="cls-2" d="M40.38.26A40.39,40.39,0,0,0,2.17,27.6c2.48-1.1,22.2-16.46,42.6-4.44C76.3,41,58.11,73.54,56.71,77.63A40.41,40.41,0,0,0,40.38.26Z"/><path class="cls-3" d="M40.41,81.06A40.4,40.4,0,0,0,78.63,53.72C76.16,54.82,47,73.88,25.93,56.09,16.57,48.18,16.19,35,18.25,21.94,20,11.13,22.68,7.78,24.08,3.69A40.41,40.41,0,0,0,40.41,81.06Z"/><path class="cls-4" d="M20.83,27.66c-7.78,9.65-7.23,22.09-13.7,23.11C4.61,51.17.46,49,.06,42.14A40.4,40.4,0,0,0,29.19,79.48c-3.84-5.3-5.27-7.92-5.27-15,0-17.7,14.17-30.75,31.33-32.32C68.59,31,75,33.89,80.76,42c0-.43,0-.93,0-1.38a40,40,0,0,0-12-28.71C66.23,9.42,39.7,4.27,20.83,27.66Z"/><path class="cls-1" d="M127.8,38.4a12.65,12.65,0,0,1-7.35-2.17v0l-1.26-1c-2.49-2.06-3.24-5.52-3.45-6.91l-.11-.71,5.95-1.29.15.76a6.09,6.09,0,0,0,6.07,5.1,6.24,6.24,0,0,0,4.79-2,5.51,5.51,0,0,0,.94-2.65,3,3,0,0,0-.49-1.93l-.06-.06a40.94,40.94,0,0,0-4.51-3.44,7,7,0,0,1-2-1.46c-4-2.62-6.61-4.53-7.59-5.93a9.82,9.82,0,0,1-1.7-5.05A10,10,0,0,1,120,3.07c2.46-2.54,5-3,8.42-3a11.66,11.66,0,0,1,6.82,2.35,12.48,12.48,0,0,1,4.07,7.23l.14.74-6,1.3-.15-.76c-.51-2.55-2.75-4.71-4.9-4.71-2.51,0-3.26.35-4,1.12a3.72,3.72,0,0,0-1,2.33,5.07,5.07,0,0,0,.62,1.53,49.32,49.32,0,0,0,4.69,3.54c.74.51,1.47,1,2.17,1.53,2.65,1.88,5.59,4,6.71,5.4a9.41,9.41,0,0,1,2,6.22,10.65,10.65,0,0,1-2.25,6.24A12.73,12.73,0,0,1,127.8,38.4Z"/><path class="cls-1" d="M171.05,38.2h-5.35L149.75,13V38.2h-6.08V.36H149l15.83,25V.36h6.21Z"/><path class="cls-1" d="M187,38.4a12.65,12.65,0,0,1-7.35-2.17v0l-1.26-1c-2.49-2.06-3.24-5.52-3.45-6.91l-.11-.71,5.95-1.29.15.76a6.09,6.09,0,0,0,6.07,5.1,6.24,6.24,0,0,0,4.79-2,5.51,5.51,0,0,0,.94-2.65,3,3,0,0,0-.49-1.93l-.06-.06a40.94,40.94,0,0,0-4.51-3.44,7,7,0,0,1-2-1.46c-4-2.62-6.61-4.53-7.59-5.93a9.82,9.82,0,0,1-1.7-5.05,10,10,0,0,1,2.74-6.62c2.46-2.54,5-3,8.42-3a11.66,11.66,0,0,1,6.82,2.35,12.48,12.48,0,0,1,4.07,7.23l.14.74-6,1.3-.15-.76c-.51-2.55-2.75-4.71-4.9-4.71-2.51,0-3.26.35-4,1.12a3.72,3.72,0,0,0-1,2.33,5.07,5.07,0,0,0,.62,1.53,49.32,49.32,0,0,0,4.69,3.54c.74.51,1.47,1,2.17,1.53,2.65,1.88,5.59,4,6.71,5.4a9.41,9.41,0,0,1,2,6.22,10.65,10.65,0,0,1-2.25,6.24A12.73,12.73,0,0,1,187,38.4Z"/><path class="cls-1" d="M116,56.11V50.56a3.79,3.79,0,0,1,1.15-3,4.44,4.44,0,0,1,3-1,4.67,4.67,0,0,1,3,.92,2.84,2.84,0,0,1,1.13,2.3.91.91,0,0,1-.19.67.9.9,0,0,1-.62.17q-.77,0-.81-.54-.11-2.12-2.5-2.13a2.29,2.29,0,0,0-2.56,2.62v5.56a2.31,2.31,0,0,0,2.61,2.62,3.34,3.34,0,0,0,1.25-.2,1.5,1.5,0,0,0,.74-.59,2.63,2.63,0,0,0,.32-.66,5.44,5.44,0,0,0,.14-.74q.06-.54.81-.53a.87.87,0,0,1,.62.19.94.94,0,0,1,.19.68,2.89,2.89,0,0,1-1.15,2.33,4.64,4.64,0,0,1-3,.93,4.41,4.41,0,0,1-3-1A3.79,3.79,0,0,1,116,56.11Z"/><path class="cls-1" d="M126.12,59.48V47.1a.46.46,0,0,1,.22-.41.9.9,0,0,1,.51-.15h6.85a.47.47,0,0,1,.41.2.81.81,0,0,1,.14.48.84.84,0,0,1-.15.51.48.48,0,0,1-.4.21h-6v4.69h3a.49.49,0,0,1,.4.19.72.72,0,0,1,.15.47.71.71,0,0,1-.14.43.48.48,0,0,1-.41.19h-3v4.71h6a.48.48,0,0,1,.4.21.85.85,0,0,1,.15.51.79.79,0,0,1-.15.48.48.48,0,0,1-.41.2h-6.84a.89.89,0,0,1-.51-.15A.46.46,0,0,1,126.12,59.48Z"/><path class="cls-1" d="M135.77,59.49V47.09c0-.36.27-.54.81-.53a1,1,0,0,1,.68.23,2.44,2.44,0,0,1,.55.75l4.78,9V47.1a.43.43,0,0,1,.24-.4,1.23,1.23,0,0,1,1.13,0,.44.44,0,0,1,.24.4V59.5a.45.45,0,0,1-.24.41,1.07,1.07,0,0,1-.57.15,1.17,1.17,0,0,1-1-.7l-5-9.29v9.43a.46.46,0,0,1-.24.41,1.16,1.16,0,0,1-1.13,0A.45.45,0,0,1,135.77,59.49Z"/><path class="cls-1" d="M145.6,47.25a.77.77,0,0,1,.15-.48.5.5,0,0,1,.42-.21H154a.5.5,0,0,1,.42.21.77.77,0,0,1,.15.48.83.83,0,0,1-.16.5A.49.49,0,0,1,154,48h-3.1V59.51a.46.46,0,0,1-.24.41,1.16,1.16,0,0,1-1.13,0,.46.46,0,0,1-.24-.41V48h-3.12a.5.5,0,0,1-.42-.21A.84.84,0,0,1,145.6,47.25Z"/><path class="cls-1" d="M156,59.51V47.11a.48.48,0,0,1,.16-.37.68.68,0,0,1,.41-.17h3.52a5.12,5.12,0,0,1,3.09.86,3.28,3.28,0,0,1,1.17,2.83,3.26,3.26,0,0,1-2.87,3.6l2.84,5.19a.51.51,0,0,1,.08.26.71.71,0,0,1-.31.54,1,1,0,0,1-.65.25q-.41,0-.73-.61l-2.9-5.41h-2.21v5.43a.46.46,0,0,1-.24.41,1.16,1.16,0,0,1-1.13,0A.45.45,0,0,1,156,59.51Zm1.62-6.72h2.48q2.65,0,2.65-2.42T160.08,48H157.6Z"/><path class="cls-1" d="M166,56.16V50.61a3.82,3.82,0,0,1,1.13-3.05,4.44,4.44,0,0,1,3-1,4.49,4.49,0,0,1,3,1,3.81,3.81,0,0,1,1.13,3.06v5.56a3.81,3.81,0,0,1-1.14,3.05,4.5,4.5,0,0,1-3,1,4.45,4.45,0,0,1-3-1A3.82,3.82,0,0,1,166,56.16Zm1.62,0q0,2.62,2.52,2.62a2.55,2.55,0,0,0,1.87-.65,2.65,2.65,0,0,0,.67-2V50.61a2.65,2.65,0,0,0-.66-2,2.55,2.55,0,0,0-1.87-.66q-2.52,0-2.52,2.62Z"/><path class="cls-1" d="M180.31,59.56V47.13a.47.47,0,0,1,.2-.38.84.84,0,0,1,.53-.16h3.4a4.49,4.49,0,0,1,3,1,3.81,3.81,0,0,1,1.13,3.06v5.44a3.81,3.81,0,0,1-1.14,3.05,4.49,4.49,0,0,1-3,1H181a.84.84,0,0,1-.53-.16A.47.47,0,0,1,180.31,59.56Zm1.62-.87h2.52a2.55,2.55,0,0,0,1.87-.65,2.65,2.65,0,0,0,.66-2V50.63a2.65,2.65,0,0,0-.66-2,2.55,2.55,0,0,0-1.87-.66h-2.52Z"/><path class="cls-1" d="M191,59.55V47.16a.47.47,0,0,1,.22-.41.9.9,0,0,1,.51-.15h6.84a.48.48,0,0,1,.41.2.8.8,0,0,1,.14.48.84.84,0,0,1-.15.51.48.48,0,0,1-.4.21h-6V52.7h3a.49.49,0,0,1,.4.19.74.74,0,0,1,.15.47.7.7,0,0,1-.14.43.49.49,0,0,1-.41.19h-3V58.7h6a.48.48,0,0,1,.4.21.84.84,0,0,1,.15.51.81.81,0,0,1-.15.48.48.48,0,0,1-.41.2h-6.84a.89.89,0,0,1-.51-.15A.46.46,0,0,1,191,59.55Z"/><path class="cls-1" d="M204.1,56.2V50.65a3.79,3.79,0,0,1,1.15-3,4.44,4.44,0,0,1,3-1,4.67,4.67,0,0,1,3,.92,2.83,2.83,0,0,1,1.13,2.3.69.69,0,0,1-.81.85q-.77,0-.81-.54-.11-2.12-2.5-2.12a2.29,2.29,0,0,0-2.56,2.62V56.2a2.31,2.31,0,0,0,2.61,2.62,3.35,3.35,0,0,0,1.25-.2,1.52,1.52,0,0,0,.74-.59,2.76,2.76,0,0,0,.32-.66,5.44,5.44,0,0,0,.14-.74q.06-.53.81-.53a.87.87,0,0,1,.61.19.93.93,0,0,1,.19.68,2.89,2.89,0,0,1-1.14,2.33,4.65,4.65,0,0,1-3,.93,4.41,4.41,0,0,1-3-1A3.79,3.79,0,0,1,204.1,56.2Z"/><path class="cls-1" d="M214.07,56.21V50.66a3.82,3.82,0,0,1,1.13-3.05,4.44,4.44,0,0,1,3-1,4.49,4.49,0,0,1,3,1,3.81,3.81,0,0,1,1.13,3.06v5.56a3.81,3.81,0,0,1-1.14,3.05,4.5,4.5,0,0,1-3,1,4.45,4.45,0,0,1-3-1A3.82,3.82,0,0,1,214.07,56.21Zm1.62,0q0,2.62,2.52,2.62a2.55,2.55,0,0,0,1.87-.65,2.65,2.65,0,0,0,.67-2V50.66a2.65,2.65,0,0,0-.66-2,2.55,2.55,0,0,0-1.87-.66q-2.52,0-2.52,2.62Z"/><path class="cls-1" d="M224.72,59.58V47.18q0-.54.81-.53a1,1,0,0,1,.68.23,2.45,2.45,0,0,1,.55.75l4.78,9V47.19a.43.43,0,0,1,.24-.4,1.23,1.23,0,0,1,1.13,0,.44.44,0,0,1,.24.4v12.4a.45.45,0,0,1-.24.41,1.07,1.07,0,0,1-.57.15,1.17,1.17,0,0,1-1-.7l-5-9.29v9.43a.46.46,0,0,1-.24.41A1.16,1.16,0,0,1,225,60,.45.45,0,0,1,224.72,59.58Z"/><path class="cls-1" d="M234.56,47.34a.77.77,0,0,1,.15-.48.5.5,0,0,1,.42-.21H243a.5.5,0,0,1,.42.21.77.77,0,0,1,.15.48.83.83,0,0,1-.16.5.49.49,0,0,1-.42.22h-3.1V59.6a.46.46,0,0,1-.24.41,1.16,1.16,0,0,1-1.13,0,.46.46,0,0,1-.24-.41V48.06h-3.12a.5.5,0,0,1-.42-.21A.84.84,0,0,1,234.56,47.34Z"/><path class="cls-1" d="M242.79,59.51a.64.64,0,0,1,0-.15l3.95-12.27q.17-.54,1-.54t1,.54l3.94,12.32a.24.24,0,0,0,0,.07.2.2,0,0,1,0,.05.53.53,0,0,1-.32.43,1.31,1.31,0,0,1-.68.19.53.53,0,0,1-.58-.35l-.84-2.73h-5.09l-.85,2.72a.53.53,0,0,1-.59.36,1.25,1.25,0,0,1-.65-.19A.53.53,0,0,1,242.79,59.51Zm2.8-3.73h4.29l-2.13-7Z"/><path class="cls-1" d="M254,56.25V50.7a3.79,3.79,0,0,1,1.15-3,4.44,4.44,0,0,1,3-1,4.67,4.67,0,0,1,3,.92,2.83,2.83,0,0,1,1.13,2.3.69.69,0,0,1-.81.85q-.77,0-.81-.54-.11-2.12-2.5-2.12a2.29,2.29,0,0,0-2.56,2.62v5.56a2.31,2.31,0,0,0,2.61,2.62,3.35,3.35,0,0,0,1.25-.2,1.52,1.52,0,0,0,.74-.59,2.76,2.76,0,0,0,.32-.66,5.44,5.44,0,0,0,.14-.74q.06-.54.81-.53a.87.87,0,0,1,.61.19.93.93,0,0,1,.19.68,2.89,2.89,0,0,1-1.14,2.33,4.65,4.65,0,0,1-3,.93,4.41,4.41,0,0,1-3-1A3.79,3.79,0,0,1,254,56.25Z"/><path class="cls-1" d="M263,47.37a.77.77,0,0,1,.15-.48.5.5,0,0,1,.42-.21h7.83a.5.5,0,0,1,.42.21.77.77,0,0,1,.15.48.83.83,0,0,1-.16.5.49.49,0,0,1-.42.22h-3.1V59.63a.46.46,0,0,1-.24.41A1.16,1.16,0,0,1,267,60a.46.46,0,0,1-.24-.41V48.09h-3.12a.5.5,0,0,1-.42-.21A.84.84,0,0,1,263,47.37Z"/><path class="cls-1" d="M273,56.27V50.72a3.82,3.82,0,0,1,1.13-3.05,4.44,4.44,0,0,1,3-1,4.5,4.5,0,0,1,3,1,3.81,3.81,0,0,1,1.13,3.06v5.56a3.81,3.81,0,0,1-1.14,3.05,4.5,4.5,0,0,1-3,1,4.45,4.45,0,0,1-3-1A3.82,3.82,0,0,1,273,56.27Zm1.62,0q0,2.62,2.52,2.62a2.55,2.55,0,0,0,1.87-.65,2.65,2.65,0,0,0,.67-2V50.72a2.65,2.65,0,0,0-.66-2,2.55,2.55,0,0,0-1.87-.66q-2.52,0-2.52,2.62Z"/><path class="cls-1" d="M115.85,78a.6.6,0,0,1,.14-.37.4.4,0,0,1,.31-.19c.08,0,.18.06.3.19l.42.43a1.93,1.93,0,0,0,.72.43,3.21,3.21,0,0,0,1.14.19,2.39,2.39,0,0,0,1.66-.53,2,2,0,0,0,.59-1.53,2.18,2.18,0,0,0-.28-1.14,2,2,0,0,0-.72-.72,5.45,5.45,0,0,0-1-.48l-1.09-.42a4.77,4.77,0,0,1-1-.5,2.22,2.22,0,0,1-.71-.82,2.66,2.66,0,0,1-.28-1.26,2.85,2.85,0,0,1,.3-1.34,2,2,0,0,1,.79-.85,3.91,3.91,0,0,1,1-.41,4.59,4.59,0,0,1,1.09-.13,5.58,5.58,0,0,1,1.73.26c.54.17.81.39.81.65a.65.65,0,0,1-.13.37.37.37,0,0,1-.31.19,1,1,0,0,1-.35-.14,4,4,0,0,0-.72-.28,3.64,3.64,0,0,0-1-.14,2.83,2.83,0,0,0-1.57.4,1.46,1.46,0,0,0-.62,1.33,1.59,1.59,0,0,0,.37,1.07,2.09,2.09,0,0,0,.93.63q.56.19,1.21.46a12.5,12.5,0,0,1,1.21.57,2.4,2.4,0,0,1,.93,1,3.32,3.32,0,0,1,.37,1.63,2.91,2.91,0,0,1-.86,2.29,3.38,3.38,0,0,1-2.33.76,4.1,4.1,0,0,1-2.2-.55Q115.85,78.47,115.85,78Z"/><path class="cls-1" d="M123.5,79.09V68.95a.32.32,0,0,1,.14-.28.53.53,0,0,1,.32-.1h5.38q.38,0,.38.43a.58.58,0,0,1-.1.33.32.32,0,0,1-.28.14h-4.83v4.1h2.37a.33.33,0,0,1,.28.13.51.51,0,0,1,.1.32c0,.27-.13.4-.38.4h-2.37v4.13h4.83a.33.33,0,0,1,.27.13.52.52,0,0,1,.11.33q0,.45-.38.45h-5.38a.51.51,0,0,1-.32-.1A.34.34,0,0,1,123.5,79.09Z"/><path class="cls-1" d="M130.75,79.09V68.93q0-.33.38-.36h2.67a3.8,3.8,0,0,1,2.36.69,2.66,2.66,0,0,1,.9,2.25,2.6,2.6,0,0,1-2.36,2.88L137,78.8a.3.3,0,0,1,.06.19.45.45,0,0,1-.18.35.59.59,0,0,1-.39.16q-.27,0-.53-.52l-2.32-4.47h-1.92v4.58a.33.33,0,0,1-.15.28.59.59,0,0,1-.35.1.58.58,0,0,1-.35-.1A.33.33,0,0,1,130.75,79.09Zm1-5.43h2.05q2.27,0,2.27-2.1t-2.27-2.07h-2.05Z"/><path class="cls-1" d="M137.47,69a.35.35,0,0,1,.18-.3.7.7,0,0,1,.39-.12c.22,0,.35.08.39.25L141.23,78,144,68.83a.36.36,0,0,1,.38-.25.75.75,0,0,1,.41.13.36.36,0,0,1,.2.3l0,0a.1.1,0,0,0,0,0L141.82,79.2q-.11.36-.6.36c-.32,0-.52-.12-.59-.36L137.48,69.1A.27.27,0,0,1,137.47,69Z"/><path class="cls-1" d="M146,79.09V68.93q0-.36.5-.36t.5.36V79.09a.33.33,0,0,1-.15.28.59.59,0,0,1-.35.1.58.58,0,0,1-.35-.1A.33.33,0,0,1,146,79.09Z"/><path class="cls-1" d="M148.76,76.37V71.75a3,3,0,0,1,.88-2.4,3.85,3.85,0,0,1,4.56-.05,2.25,2.25,0,0,1,.84,1.77.72.72,0,0,1-.11.48.52.52,0,0,1-.39.12c-.31,0-.48-.12-.5-.37a3,3,0,0,0-.06-.43,1.89,1.89,0,0,0-.18-.47,1.57,1.57,0,0,0-.35-.46,1.72,1.72,0,0,0-.61-.32,2.94,2.94,0,0,0-.91-.13q-2.17,0-2.18,2.27v4.63A2,2,0,0,0,152,78.67a2.81,2.81,0,0,0,1.06-.17,1.22,1.22,0,0,0,.62-.5,2.55,2.55,0,0,0,.26-.56,3.79,3.79,0,0,0,.11-.61c0-.26.2-.39.5-.39a.5.5,0,0,1,.39.13.75.75,0,0,1,.11.48,2.22,2.22,0,0,1-.7,1.64,3.12,3.12,0,0,1-1.91.82l-.23.86a1.71,1.71,0,0,1,1.09.32,1,1,0,0,1,.36.75,1.11,1.11,0,0,1-.35.8,1.34,1.34,0,0,1-1,.35,3.1,3.1,0,0,1-.78-.1c-.27-.07-.4-.16-.4-.28a.51.51,0,0,1,.07-.22c0-.09.1-.14.17-.14l.28.1a1.51,1.51,0,0,0,.57.1q.8,0,.8-.58t-1-.63l-.57,0,.33-1.25a3.29,3.29,0,0,1-2.22-.8A3.08,3.08,0,0,1,148.76,76.37Z"/><path class="cls-1" d="M156.24,76.37V71.75a3.09,3.09,0,0,1,.85-2.41,3.79,3.79,0,0,1,4.58,0,3.09,3.09,0,0,1,.85,2.41v4.62a3.11,3.11,0,0,1-.85,2.42,3.79,3.79,0,0,1-4.58,0A3.11,3.11,0,0,1,156.24,76.37Zm1,0q0,2.28,2.14,2.28t2.14-2.28V71.75q0-2.27-2.14-2.27t-2.14,2.27Z"/><path class="cls-1" d="M166.87,79.09V68.95q0-.37.5-.37t.79.69l4.08,7.93V68.93q0-.36.5-.36t.5.36V79.09a.33.33,0,0,1-.15.28.59.59,0,0,1-.35.1q-.38,0-.66-.57l-4.2-8.07v8.25a.33.33,0,0,1-.15.28.59.59,0,0,1-.35.1.58.58,0,0,1-.35-.1A.33.33,0,0,1,166.87,79.09Z"/><path class="cls-1" d="M174.27,79.06a.24.24,0,0,1,0-.1l3.16-10.13q.11-.34.59-.34a.56.56,0,0,1,.6.35L181.78,79a.16.16,0,0,0,0,0v0a.35.35,0,0,1-.2.29.77.77,0,0,1-.41.12.36.36,0,0,1-.38-.25l-.7-2.3h-4.17l-.7,2.3c0,.17-.17.25-.4.25a.71.71,0,0,1-.4-.12A.35.35,0,0,1,174.27,79.06Zm1.93-3h3.66l-1.82-6Z"/><path class="cls-1" d="M182.71,76.37V71.75a3,3,0,0,1,.88-2.4,3.85,3.85,0,0,1,4.56-.05,2.25,2.25,0,0,1,.84,1.77.72.72,0,0,1-.11.48.52.52,0,0,1-.39.12c-.31,0-.48-.12-.5-.37a2.87,2.87,0,0,0-.06-.43,2,2,0,0,0-.18-.47,1.59,1.59,0,0,0-.35-.46,1.74,1.74,0,0,0-.61-.32,3,3,0,0,0-.91-.13q-2.17,0-2.17,2.27v4.62a2,2,0,0,0,2.23,2.28,2.85,2.85,0,0,0,1.06-.17,1.23,1.23,0,0,0,.62-.5,2.5,2.5,0,0,0,.26-.56,3.76,3.76,0,0,0,.11-.6q0-.39.5-.39a.5.5,0,0,1,.39.13A.75.75,0,0,1,189,77a2.27,2.27,0,0,1-.85,1.79,3.42,3.42,0,0,1-2.3.73,3.26,3.26,0,0,1-2.26-.78A3.08,3.08,0,0,1,182.71,76.37Z"/><path class="cls-1" d="M190.31,79.09V68.93q0-.36.5-.36t.5.36V79.09a.33.33,0,0,1-.15.28.59.59,0,0,1-.35.1.58.58,0,0,1-.35-.1A.33.33,0,0,1,190.31,79.09Z"/><path class="cls-1" d="M193.06,76.37V71.75a3.09,3.09,0,0,1,.85-2.41,3.79,3.79,0,0,1,4.58,0,3.09,3.09,0,0,1,.85,2.41v4.62a3.1,3.1,0,0,1-.85,2.42,3.79,3.79,0,0,1-4.58,0A3.1,3.1,0,0,1,193.06,76.37Zm1,0q0,2.28,2.14,2.28t2.14-2.28V71.75q0-2.27-2.14-2.27t-2.14,2.27Z"/><path class="cls-1" d="M201.1,79.09V68.95q0-.37.5-.37t.79.69l4.08,7.93V68.93q0-.36.5-.36t.5.36V79.09a.33.33,0,0,1-.15.28.59.59,0,0,1-.35.1q-.38,0-.66-.57l-4.2-8.07v8.25a.33.33,0,0,1-.15.28.59.59,0,0,1-.35.1.58.58,0,0,1-.35-.1A.33.33,0,0,1,201.1,79.09Z"/><path class="cls-1" d="M208.5,79.06a.24.24,0,0,1,0-.1l3.16-10.13q.11-.34.59-.34a.56.56,0,0,1,.6.35L216,79a.16.16,0,0,0,0,0v0a.35.35,0,0,1-.2.29.77.77,0,0,1-.41.12.36.36,0,0,1-.38-.25l-.7-2.3h-4.17l-.7,2.3c0,.17-.17.25-.4.25a.71.71,0,0,1-.4-.12A.35.35,0,0,1,208.5,79.06Zm1.93-3h3.66l-1.82-6Z"/><path class="cls-1" d="M217.06,79.09V68.93q0-.36.5-.36t.5.36v9.63h4.3c.22,0,.33.15.33.45s-.11.46-.33.46h-4.85a.5.5,0,0,1-.32-.1A.34.34,0,0,1,217.06,79.09Z"/><path class="cls-1" d="M226.23,79.1V68.93a.31.31,0,0,1,.13-.25.49.49,0,0,1,.32-.1h2.67a3.32,3.32,0,0,1,2.3.77,3.07,3.07,0,0,1,.86,2.41v4.53a3.09,3.09,0,0,1-.86,2.42,3.32,3.32,0,0,1-2.3.77h-2.67a.48.48,0,0,1-.32-.11A.34.34,0,0,1,226.23,79.1Zm1-.54h2.13a2.14,2.14,0,0,0,1.59-.57,2.34,2.34,0,0,0,.57-1.71V71.75a2.31,2.31,0,0,0-.57-1.7,2.16,2.16,0,0,0-1.59-.57h-2.13Z"/><path class="cls-1" d="M234.26,79.09V68.95a.32.32,0,0,1,.14-.28.53.53,0,0,1,.32-.1h5.38q.38,0,.38.43a.58.58,0,0,1-.1.33.32.32,0,0,1-.28.14h-4.83v4.1h2.37a.33.33,0,0,1,.28.13.51.51,0,0,1,.1.32c0,.27-.13.4-.38.4h-2.37v4.13h4.83a.33.33,0,0,1,.27.13.52.52,0,0,1,.11.33q0,.45-.38.45h-5.38a.51.51,0,0,1-.32-.1A.34.34,0,0,1,234.26,79.09Z"/><path class="cls-1" d="M243.5,78a.6.6,0,0,1,.14-.37.4.4,0,0,1,.31-.19.49.49,0,0,1,.3.19l.42.43a1.94,1.94,0,0,0,.72.43,3.2,3.2,0,0,0,1.14.19,2.4,2.4,0,0,0,1.66-.53,2,2,0,0,0,.59-1.53,2.2,2.2,0,0,0-.28-1.14,2,2,0,0,0-.72-.72,5.43,5.43,0,0,0-1-.48l-1.09-.42a4.77,4.77,0,0,1-1-.5,2.19,2.19,0,0,1-.71-.82,2.66,2.66,0,0,1-.28-1.26,2.86,2.86,0,0,1,.29-1.34,2,2,0,0,1,.79-.85,4,4,0,0,1,1-.41,4.6,4.6,0,0,1,1.09-.13,5.57,5.57,0,0,1,1.73.26q.81.26.81.65a.64.64,0,0,1-.13.37.37.37,0,0,1-.31.19,1,1,0,0,1-.35-.14,4,4,0,0,0-.72-.28,3.63,3.63,0,0,0-1-.14,2.83,2.83,0,0,0-1.57.4,1.46,1.46,0,0,0-.62,1.33,1.59,1.59,0,0,0,.37,1.07,2.09,2.09,0,0,0,.93.63q.56.19,1.21.46a12.68,12.68,0,0,1,1.21.57,2.39,2.39,0,0,1,.93,1,3.31,3.31,0,0,1,.37,1.63,2.91,2.91,0,0,1-.86,2.29,3.39,3.39,0,0,1-2.33.76,4.1,4.1,0,0,1-2.21-.55Q243.51,78.47,243.5,78Z"/><path class="cls-1" d="M250.32,79.06a.27.27,0,0,1,0-.1l3.16-10.13c.07-.23.26-.34.58-.34a.56.56,0,0,1,.6.35L257.82,79v.08a.35.35,0,0,1-.2.29.76.76,0,0,1-.41.12.36.36,0,0,1-.38-.25l-.7-2.3H252l-.7,2.3c0,.17-.17.25-.4.25a.71.71,0,0,1-.39-.12A.35.35,0,0,1,250.32,79.06Zm1.93-3h3.66l-1.82-6Z"/><path class="cls-1" d="M258.76,76.37V68.93q0-.36.5-.36t.5.36v7.44a2.34,2.34,0,0,0,.57,1.71,2.54,2.54,0,0,0,3.22,0,2.34,2.34,0,0,0,.57-1.71V68.93q0-.36.5-.36t.5.36v7.44a3.07,3.07,0,0,1-.87,2.42,3.83,3.83,0,0,1-4.61,0A3.07,3.07,0,0,1,258.76,76.37Zm2.1-9.92a.27.27,0,0,1,.17-.27l1.69-.91a.16.16,0,0,1,.12,0,.32.32,0,0,1,.26.13.46.46,0,0,1,.1.29A.33.33,0,0,1,263,66l-1.62.85a.25.25,0,0,1-.15,0,.37.37,0,0,1-.27-.13A.41.41,0,0,1,260.86,66.46Z"/><path class="cls-1" d="M266.93,79.1V68.93a.31.31,0,0,1,.13-.25.49.49,0,0,1,.32-.1h2.67a3.32,3.32,0,0,1,2.3.77,3.07,3.07,0,0,1,.86,2.41v4.53a3.09,3.09,0,0,1-.86,2.42,3.32,3.32,0,0,1-2.3.77h-2.67a.48.48,0,0,1-.32-.11A.34.34,0,0,1,266.93,79.1Zm1-.54h2.13a2.14,2.14,0,0,0,1.59-.57,2.33,2.33,0,0,0,.57-1.71V71.75a2.31,2.31,0,0,0-.57-1.7,2.15,2.15,0,0,0-1.59-.57h-2.13Z"/><path class="cls-1" d="M275,79.09V68.95a.32.32,0,0,1,.14-.28.53.53,0,0,1,.32-.1h5.38q.38,0,.38.43a.57.57,0,0,1-.1.33.32.32,0,0,1-.28.14H276v4.1h2.37a.34.34,0,0,1,.28.13.51.51,0,0,1,.1.32c0,.27-.13.4-.38.4H276v4.13h4.83a.33.33,0,0,1,.27.13.52.52,0,0,1,.1.33q0,.45-.38.45h-5.38a.5.5,0,0,1-.32-.1A.34.34,0,0,1,275,79.09Z"/></g></g></svg>